HIERARCHY
ROOT Hips
{
	OFFSET 0.000000 0.000000 0.000000
	CHANNELS 6 Xposition Yposition Zposition Zrotation Yrotation Xrotation 
	JOINT LHipJoint
	{
		OFFSET 0.000000 0.000000 0.000000
		CHANNELS 3 Zrotation Yrotation Xrotation
		JOINT LeftUpLeg
		{
			OFFSET 1.363060 -1.794630 0.839290
			CHANNELS 3 Zrotation Yrotation Xrotation
			JOINT LeftLeg
			{
				OFFSET 2.448110 -6.726130 0.000000
				CHANNELS 3 Zrotation Yrotation Xrotation
				JOINT LeftFoot
				{
					OFFSET 2.562200 -7.039590 0.000000
					CHANNELS 3 Zrotation Yrotation Xrotation
					JOINT LeftToeBase
					{
						OFFSET 0.157640 -0.433110 2.322550
						CHANNELS 3 Zrotation Yrotation Xrotation
						End Site
						{
							OFFSET 0.000000 0.000000 0.000000
						}
					}
				}
			}
		}
	}
	JOINT RHipJoint
	{
		OFFSET 0.000000 0.000000 0.000000
		CHANNELS 3 Zrotation Yrotation Xrotation
		JOINT RightUpLeg
		{
			OFFSET -1.305520 -1.794630 0.839290
			CHANNELS 3 Zrotation Yrotation Xrotation
			JOINT RightLeg
			{
				OFFSET -2.542530 -6.985550 0.000000
				CHANNELS 3 Zrotation Yrotation Xrotation
				JOINT RightFoot
				{
					OFFSET -2.568260 -7.056230 0.000000
					CHANNELS 3 Zrotation Yrotation Xrotation
					JOINT RightToeBase
					{
						OFFSET -0.164730 -0.452590 2.363150
						CHANNELS 3 Zrotation Yrotation Xrotation
						End Site
						{
							OFFSET 0.000000 0.000000 0.000000
						}
					}
				}
			}
		}
	}
}
MOTION
Frames: 31
Frame Time: 0.008333
-11.609482 17.719829 -0.743035 -51.864355 88.702746 -27.380531 -11.733862 3.871940 0.832635 -6.835956 7.864730 -9.372086 -1.163936 0.520611 13.030670 0.663795 3.000059 18.616683 1.146799 -0.000000 -65.914700 8.478986 -1.003848 3.603059 11.307871 7.431354 -44.831512 1.812302 -1.994610 34.249779 -1.442439 -4.575261 -7.364836 -0.519800 -0.000000 -36.484200
-11.353820 17.788933 -0.717454 -46.405815 88.423486 -21.788472 -11.836003 3.931448 0.710359 -6.421723 8.356617 -8.900775 -1.100098 0.575321 12.793482 0.721317 2.757393 20.497165 1.062400 0.000000 -63.921300 8.280076 -1.097098 4.001157 11.305825 8.300218 -44.098886 2.144103 -1.527397 29.468893 -1.262417 -3.976806 -6.131778 -0.654100 0.000000 -37.578700
-11.100052 17.845602 -0.690343 -40.620187 88.198258 -15.881570 -11.908234 3.971129 0.609288 -6.131813 8.545378 -8.421918 -1.032072 0.622124 12.808130 0.794310 2.889874 21.708903 1.124000 0.000001 -61.555300 8.104460 -1.158056 4.365459 11.192501 9.086390 -43.376950 2.444392 -1.051429 24.917622 -1.059551 -3.358210 -4.836007 -0.762100 -0.000000 -38.851100
-10.848420 17.889958 -0.662082 -33.981721 88.031003 -9.146300 -11.951660 3.995561 0.537671 -5.983549 8.411253 -7.926062 -0.954921 0.663155 13.068291 0.879873 3.439731 22.297212 1.373000 0.000000 -59.094600 7.953165 -1.186881 4.670065 10.993505 9.724631 -42.711064 2.704439 -0.595610 20.756142 -0.837280 -2.701934 -3.516808 -0.832800 0.000000 -40.275000
-10.599474 17.922381 -0.633348 -26.825312 87.909411 -1.939016 -11.963438 4.003721 0.491307 -5.961396 7.986020 -7.405884 -0.863102 0.700583 13.580669 0.977770 4.380345 22.336677 1.798800 -0.000000 -56.737500 7.827819 -1.191364 4.893687 10.767149 10.175686 -42.113064 2.923173 -0.189844 17.112015 -0.602674 -1.998833 -2.216398 -0.857100 0.000000 -41.801700
-10.353544 17.943337 -0.604752 -19.770231 87.810287 5.107949 -11.936188 3.994655 0.462476 -6.038873 7.332729 -6.877460 -0.755302 0.736709 14.365936 1.089031 5.631562 21.909496 2.350401 0.000000 -54.533700 7.736254 -1.178532 5.027679 10.579343 10.425849 -41.588837 3.104518 0.143162 14.070025 -0.365137 -1.250995 -0.972622 -0.831301 -0.000000 -43.386400
-10.110774 17.953184 -0.576756 -13.472237 87.698366 11.333382 -11.868917 3.969870 0.440803 -6.185967 6.535813 -6.366798 -0.635625 0.775433 15.440204 1.215732 7.086822 21.116282 2.957800 0.000000 -52.534000 7.684887 -1.151985 5.074300 10.482623 10.495296 -41.128332 3.253291 0.393385 11.659897 -0.136506 -0.484500 0.189020 -0.760100 0.000000 -44.968000
-9.871173 17.952070 -0.549539 -8.240875 87.546802 16.427552 -11.773068 3.933159 0.416585 -6.382967 5.678002 -5.898604 -0.511265 0.821659 16.800098 1.359695 8.645043 20.078500 3.558700 0.000000 -50.849500 7.670312 -1.115335 5.041510 10.497312 10.420132 -40.713075 3.372055 0.561070 9.872289 0.071711 0.259946 1.249596 -0.655500 0.000000 -46.463600
-9.634568 17.939923 -0.523111 -4.141827 87.348196 20.328930 -11.667053 3.888323 0.378928 -6.608962 4.849112 -5.503578 -0.390161 0.880316 18.439693 1.517991 10.201761 18.906726 4.099199 0.000000 -49.500000 7.681535 -1.075143 4.943245 10.616961 10.246515 -40.322025 3.460761 0.652882 8.668293 0.248756 0.929653 2.193554 -0.535500 0.000000 -47.771799
-9.400669 17.916447 -0.497367 -1.176443 87.110572 23.045214 -11.569154 3.838489 0.316703 -6.831931 4.141366 -5.220042 -0.279150 0.955567 20.354944 1.681934 11.652638 17.680912 4.535300 0.000000 -48.372400 7.705564 -1.039179 4.800634 10.817975 10.035574 -39.932984 3.517162 0.680358 7.980241 0.383948 1.458218 3.009523 -0.424000 0.000001 -48.784800
-9.169016 17.881375 -0.471964 1.110990 86.853628 25.038105 -11.485211 3.787464 0.231387 -7.048405 3.568296 -5.043135 -0.177496 1.047434 22.485944 1.847955 12.985318 16.511050 4.881000 0.000000 -47.655200 7.737283 -1.011287 4.622392 11.069067 9.798663 -39.543518 3.540485 0.649447 7.782107 0.476648 1.839357 3.651798 -0.330900 0.000000 -49.364700
-8.938965 17.834169 -0.446894 2.515539 86.587615 26.126111 -11.428668 3.736836 0.114909 -7.204552 3.215987 -5.033263 -0.089562 1.157638 24.844045 2.001722 14.108145 15.397723 5.105400 -0.000000 -47.080700 7.764970 -0.996714 4.441937 11.340811 9.628825 -39.148345 3.528131 0.576723 7.984124 0.517275 2.000271 4.107622 -0.283500 0.000000 -49.442400
-8.709942 17.774712 -0.422013 3.351352 86.328950 26.635584 -11.398455 3.688742 -0.024007 -7.295886 3.061188 -5.186507 -0.011958 1.283199 27.376740 2.140761 15.045911 14.369134 5.235600 0.000000 -46.649500 7.786325 -0.994705 4.267841 11.613295 9.533442 -38.768426 3.482918 0.467714 8.579119 0.510487 1.968738 4.308647 -0.280900 -0.000000 -48.915100
-8.481332 17.702908 -0.397438 3.649828 86.086305 26.618006 -11.395999 3.643501 -0.178268 -7.304539 3.096725 -5.524803 0.057153 1.421478 30.064580 2.261735 15.805754 13.399142 5.279300 -0.000001 -46.275100 7.796309 -1.004351 4.115425 11.876801 9.543139 -38.436362 3.408897 0.329582 9.556576 0.459131 1.764867 4.190949 -0.320400 -0.000000 -47.724500
-8.252565 17.619311 -0.373524 3.448312 85.866999 26.126397 -11.418855 3.599856 -0.335641 -7.229448 3.270218 -6.043447 0.122419 1.568693 32.867877 2.368916 16.445364 12.474116 5.264400 0.000000 -46.024600 7.791509 -1.021753 3.991936 12.129480 9.671518 -38.177845 3.311856 0.168696 10.905463 0.367870 1.426074 3.697105 -0.388700 -0.000001 -45.874800
-8.023247 17.524554 -0.350716 2.655285 85.672077 25.088744 -11.466993 3.556420 -0.487817 -7.060815 3.561668 -6.766618 0.184772 1.723001 35.788098 2.462717 16.983707 11.517754 5.185100 0.000000 -45.667900 7.768227 -1.044626 3.907292 12.382928 9.934737 -38.038050 3.198712 -0.011681 12.636913 0.241038 0.994666 2.776192 -0.466400 0.000000 -43.408100
-7.793091 17.419777 -0.329563 1.223002 85.499799 23.470822 -11.536866 3.511013 -0.624090 -6.804587 3.924499 -7.697764 0.247397 1.882340 38.808237 2.548887 17.473520 10.492073 5.053900 -0.000001 -45.278200 7.726608 -1.069122 3.863772 12.652034 10.328534 -38.052480 3.076264 -0.210047 14.757352 0.083763 0.520726 1.402046 -0.527999 -0.000000 -40.424900
-7.562102 17.306460 -0.310467 -0.860570 85.346073 21.268425 -11.623229 3.461804 -0.737629 -6.472507 4.325982 -8.840636 0.311791 2.046220 41.924557 2.630665 17.944426 9.333535 4.864600 0.000000 -44.699800 7.671233 -1.091573 3.858822 12.951936 10.830002 -38.254384 2.950421 -0.427987 17.280263 -0.097933 0.059655 -0.431218 -0.546600 -0.000000 -37.019100
-7.330367 17.186577 -0.293791 -3.594866 85.206866 18.486026 -11.719245 3.406100 -0.822353 -6.081478 4.725046 -10.187762 0.380714 2.214007 45.121099 2.712591 18.429553 8.007691 4.616200 -0.000000 -43.822700 7.609458 -1.108856 3.887866 13.293182 11.411005 -38.650595 2.825791 -0.664435 20.174949 -0.299344 -0.354342 -2.681600 -0.505299 0.000000 -33.291399
-7.098307 17.062413 -0.279651 -6.882347 85.076300 15.218366 -11.816942 3.340039 -0.875655 -5.657720 5.084701 -11.719766 0.458212 2.383920 48.370788 2.799618 18.959119 6.519992 4.313601 0.000000 -42.822400 7.551457 -1.119604 3.943511 13.674609 12.035317 -39.225439 2.704771 -0.917497 23.378095 -0.514735 -0.701212 -5.259345 -0.398201 0.000000 -29.498000
-6.866657 16.936651 -0.267952 -10.570052 84.949101 11.607242 -11.910459 3.259133 -0.900990 -5.225301 5.384105 -13.407953 0.547177 2.554286 51.644051 2.893618 19.536472 4.874363 3.951100 0.000001 -41.671500 7.505504 -1.124772 4.016401 14.088761 12.667017 -39.933320 2.589262 -1.182362 26.789901 -0.738043 -0.978114 -8.049968 -0.231400 0.000000 -25.852600
-6.635622 16.812354 -0.258585 -14.608088 84.824684 7.704770 -11.998439 3.158806 -0.897814 -4.793247 5.603490 -15.246964 0.649247 2.722751 54.914611 2.993762 20.141309 3.078056 3.517000 0.000000 -40.211000 7.473162 -1.129404 4.105269 14.535336 13.284812 -40.725789 2.483637 -1.449240 30.271034 -0.964574 -1.200353 -10.931879 -0.019500 -0.000000 -22.395200
-6.406422 16.692654 -0.251050 -18.680145 84.690470 3.800232 -12.080231 3.035624 -0.877615 -4.388091 5.742288 -17.181199 0.764575 2.887574 58.128786 3.099346 20.757543 1.180245 3.015800 0.000000 -38.589400 7.455320 -1.137069 4.195020 14.997029 13.855806 -41.511244 2.388562 -1.709890 33.680971 -1.185787 -1.376541 -13.768470 0.219600 0.000000 -19.453500
-6.179560 16.580656 -0.244852 -22.596692 84.537337 0.073161 -12.158008 2.889073 -0.844819 -4.019184 5.800551 -19.186230 0.890610 3.047927 61.241309 3.206576 21.349861 -0.774426 2.451600 0.000000 -36.832700 7.447331 -1.151782 4.279560 15.467753 14.363472 -42.217597 2.307188 -1.953439 36.879514 -1.395333 -1.517544 -16.455458 0.468200 -0.000000 -17.078000
-5.955527 16.479185 -0.239292 -26.122662 84.353547 -3.255627 -12.232220 2.722186 -0.805292 -3.697690 5.786509 -21.230126 1.022606 3.204350 64.201915 3.310226 21.879948 -2.739418 1.835800 0.000000 -34.984300 7.445368 -1.174357 4.350948 15.937894 14.793606 -42.773292 2.241451 -2.170212 39.748883 -1.586748 -1.626667 -18.909181 0.710700 0.000000 -15.325201
-5.734681 16.390652 -0.233477 -29.020774 84.129689 -5.964939 -12.300250 2.541376 -0.764413 -3.435716 5.711022 -23.279386 1.154316 3.358088 66.960589 3.404225 22.309976 -4.676960 1.184100 0.000000 -33.034000 7.448227 -1.201975 4.401162 16.393344 15.133424 -43.117144 2.192807 -2.351912 42.199223 -1.753910 -1.699344 -21.072495 0.933300 0.000000 -14.207100
-5.517005 16.316883 -0.226515 -31.142957 83.862401 -7.918549 -12.357097 2.354346 -0.724874 -3.242326 5.583571 -25.306119 1.279513 3.509270 69.471470 3.482933 22.609276 -6.550167 0.518899 -0.000000 -31.039500 7.456591 -1.230611 4.425469 16.819013 15.375852 -43.205407 2.162637 -2.492041 44.168243 -1.892045 -1.728679 -22.911236 1.124600 -0.000000 -13.692900
-5.302177 16.259000 -0.217554 -32.434286 83.555182 -9.070021 -12.397107 2.168331 -0.687030 -3.123959 5.409939 -27.286532 1.392502 3.656251 71.693956 3.542106 22.758843 -8.323637 -0.132900 0.000001 -29.084900 7.471714 -1.256475 4.421760 17.198915 15.518100 -43.011447 2.152138 -2.586184 45.619404 -1.997933 -1.707324 -24.411799 1.275900 0.000001 -13.715300
-5.089674 16.217578 -0.205849 -32.900290 83.217831 -9.432028 -12.415686 1.989623 -0.649471 -3.086408 5.192359 -29.198786 1.487716 3.795989 73.594306 3.579554 22.753065 -9.976467 -0.748400 0.000001 -27.233900 7.494636 -1.276810 4.389263 17.515870 15.557505 -42.524542 2.161826 -2.632220 46.541426 -2.069555 -1.627217 -25.577843 1.381500 0.000000 -14.179000
-4.878664 16.192580 -0.190881 -32.599489 82.864484 -9.066366 -12.410489 1.822870 -0.608721 -3.134712 4.927774 -31.024637 1.560061 3.924321 75.146991 3.595708 22.601212 -11.499525 -1.310700 -0.000000 -25.488500 7.525319 -1.290676 4.328606 17.753396 15.492078 -41.748756 2.191155 -2.630136 46.944892 -2.106521 -1.482685 -26.426756 1.438800 0.000000 -14.967700
-4.668176 16.183579 -0.172458 -31.648158 82.511879 -8.087677 -12.381805 1.669676 -0.559121 -3.266829 4.609468 -32.753033 1.605653 4.036231 76.334701 3.593741 22.327421 -12.885859 -1.808000 0.000000 -23.889000 7.561591 -1.299635 4.243138 17.901253 15.325257 -40.703530 2.238471 -2.581948 46.857212 -2.110648 -1.274707 -26.984649 1.449400 0.000000 -15.941700
